<svg width="24" height="24" viewBox="0 0 24 24" fill="none" xmlns="http://www.w3.org/2000/svg">
<path d="M6 13.5V16C6 17.1046 6.89543 18 8 18V18M6 13.5H13M6 13.5V13.5C5.44772 13.5 5 13.0523 5 12.5V12.5C5 11.9477 5.44772 11.5 6 11.5V11.5M19 13.5V16C19 17.1046 18.1046 18 17 18V18M19 13.5H17.5M19 13.5V13.5C19.5523 13.5 20 13.0523 20 12.5V12.5C20 11.9477 19.5523 11.5 19 11.5H17.5M17.5 13.5V14.4C17.5 14.4552 17.4552 14.5 17.4 14.5H13.1C13.0448 14.5 13 14.4552 13 14.4V13.5M17.5 13.5V11.5M13 13.5V11.5M13 11.5V11.5C13 10.9477 13.4477 10.5 14 10.5H16.5C17.0523 10.5 17.5 10.9477 17.5 11.5V11.5M13 11.5H6M6 11.5V6.1C6 4.9402 6.9402 4 8.1 4H8.5C9.60457 4 10.5 4.89543 10.5 6V6M10.5 6C11.5894 6.04516 12.5 7 12.5 8H8.5C8.5 7 9.5 6 10.5 6ZM8 18L7 19M8 18H17M17 18L18 19" stroke="#272F3A" stroke-width="0.7" stroke-linecap="square" stroke-linejoin="round"/>
</svg>
