<svg width="24" height="24" viewBox="0 0 24 24" fill="none" xmlns="http://www.w3.org/2000/svg">
<path d="M8 10V8.54142C8 8.5149 7.98946 8.48946 7.97071 8.47071L6.57071 7.07071C6.53166 7.03166 6.46834 7.03166 6.42929 7.07071L5.02929 8.47071C5.01054 8.48946 5 8.5149 5 8.54142V16.4C5 16.4552 5.04477 16.5 5.1 16.5H7.9C7.95523 16.5 8 16.4552 8 16.4V14.5M8 10H10.5M8 10V12.5M10.5 10V8.54142C10.5 8.5149 10.5105 8.48946 10.5293 8.47071L11.9293 7.07071C11.9683 7.03166 12.0317 7.03166 12.0707 7.07071L13.4707 8.47071C13.4895 8.48946 13.5 8.5149 13.5 8.54142V10M10.5 10V12.5M8 12.5H10.5M8 12.5V14.5M10.5 12.5V14.5M8 14.5H10.5M10.5 14.5V16.4C10.5 16.4552 10.5448 16.5 10.6 16.5H13.4C13.4552 16.5 13.5 16.4552 13.5 16.4V14.5M13.5 10H16M13.5 10V12.5M16 10V8.54142C16 8.5149 16.0105 8.48946 16.0293 8.47071L17.4293 7.07071C17.4683 7.03166 17.5317 7.03166 17.5707 7.07071L18.9707 8.47071C18.9895 8.48946 19 8.5149 19 8.54142V16.4C19 16.4552 18.9552 16.5 18.9 16.5H16.1C16.0448 16.5 16 16.4552 16 16.4V14.5M16 10V12.5M13.5 12.5H16M13.5 12.5V14.5M16 12.5V14.5M13.5 14.5H16" stroke="#272F3A" stroke-width="0.7"/>
</svg>
