<svg width="24" height="24" viewBox="0 0 24 24" fill="none" xmlns="http://www.w3.org/2000/svg">
<path d="M2 16.4992L4.25003 16.5H6.25003H8.25003H10M22.5 16.4992L21.25 16.5H20.25H20H18.25H18H16.25M16.25 16.5H14.25H14M16.25 16.5C15.9945 15.5351 16.011 14.8115 16.5829 13.2015C16.6803 12.9274 16.9424 12.7471 17.2334 12.7471H19.1351C19.1959 12.7471 19.2424 12.6928 19.2353 12.6325C19.0209 10.8122 19.7877 9.43188 20.1119 8.94144C20.199 8.80978 20.3217 8.70431 20.4713 8.65378C21.2832 8.37937 21.4617 9.14852 21.25 9.74726C20.5347 11.7703 20.4057 13.1747 20.8336 15.7613C20.8973 16.1458 20.6044 16.5008 20.2147 16.5008V16.5008C19.9391 16.5008 19.692 16.3204 19.6328 16.0512C19.5046 15.4684 19.5002 14.9805 19.5 14.0661C19.5 14.0109 19.4553 13.9659 19.4 13.9659H17.8047C17.7707 13.9659 17.7388 13.9833 17.7209 14.0124C17.48 14.4053 17.3455 14.8404 17.313 15.2758C17.2685 15.8719 16.8478 16.5004 16.25 16.5V16.5ZM10 16.5H10.25H12.25H14M10 16.5V14.9556C10 14.6639 9.88413 14.3841 9.67784 14.1778L9.20505 13.705C9.07378 13.5737 9.00003 13.3957 9.00003 13.21V13M14 16.5V14.9556C14 14.6639 14.1159 14.3841 14.3222 14.1778L14.795 13.705C14.9263 13.5737 15 13.3957 15 13.21V13M15 13V12.2C15 11.8134 14.6866 11.5 14.3 11.5H13.5M15 13H9.00003M9.00003 13V12.2C9.00003 11.8134 9.31343 11.5 9.70003 11.5H10.5M13.5 11.5C13.5 9.67528 12.8905 9.49621 12.2006 8.35714C12.1464 8.26761 11.9891 8.30577 11.976 8.40962C11.7836 9.9391 10.5 9.64988 10.5 11.5M13.5 11.5H12M10.5 11.5H12M12 11.5V11M3.00003 9.74645C3.71538 11.7695 3.84437 13.1739 3.41641 15.7605C3.3528 16.145 3.64563 16.5 4.03536 16.5V16.5C4.31096 16.5 4.55803 16.3196 4.61723 16.0504C4.74542 15.4676 4.74987 14.9796 4.75002 14.0653C4.75003 14.0101 4.7948 13.9651 4.85003 13.9651H6.4453C6.4794 13.9651 6.51129 13.9825 6.52911 14.0115C6.78039 14.4214 6.91588 14.877 6.94066 15.3312C6.97175 15.9011 7.37292 16.4996 7.94373 16.4992V16.4992C7.97692 16.4992 8.00604 16.4766 8.01429 16.4445C8.25475 15.5064 8.22818 14.7802 7.66713 13.2007C7.56976 12.9266 7.30761 12.7463 7.0167 12.7463H5.11491C5.0542 12.7463 5.00765 12.692 5.01475 12.6317C5.22914 10.8114 4.46236 9.43107 4.13814 8.94063C4.0511 8.80896 3.92832 8.70349 3.77879 8.65296C2.96681 8.37856 2.78831 9.1477 3.00003 9.74645Z" stroke="#272F3A" stroke-width="0.7" stroke-linecap="round" stroke-linejoin="round"/>
</svg>
