<svg width="24" height="24" viewBox="0 0 24 24" fill="none" xmlns="http://www.w3.org/2000/svg">
<path d="M10.2727 20.0128C10.2727 20.8342 9.66221 21.5 8.90909 21.5C8.15598 21.5 7.54545 20.8342 7.54545 20.0128M10.2727 20.0128C10.2727 19.1915 9.66221 18.5256 8.90909 18.5256C8.15598 18.5256 7.54545 19.1915 7.54545 20.0128M10.2727 20.0128H15.7273M7.54545 20.0128H7.2081H5.5V19.2692V18.1538M18.4545 20.0128C18.4545 20.8342 17.844 21.5 17.0909 21.5C16.3378 21.5 15.7273 20.8342 15.7273 20.0128M18.4545 20.0128C18.4545 19.1915 17.844 18.5256 17.0909 18.5256C16.3378 18.5256 15.7273 19.1915 15.7273 20.0128M18.4545 20.0128H20.5C20.5 19.2692 20.5 19.2692 20.5 17.782C20.1465 17.5965 19.8201 17.423 19.5 17.2765M7.2081 16.0027C6.66986 16.309 6.10299 16.6562 5.5 17.0384V18.1538M7.2081 16.0027C8.33161 15.3632 9.33041 14.9015 10.2727 14.6695C10.5186 14.609 10.7606 14.5641 11 14.5358M7.2081 16.0027V11.5H11V14.5358M5.5 18.1538H3V8M3 8L8.90909 2L15.5 8M3 8H15.5M15.5 8V10M15.5 16.1916C14.9661 15.7374 14.4541 15.3818 13.9529 15.1165C13.4 14.8237 12.8601 14.6407 12.3182 14.5559C11.8827 14.4877 11.4459 14.483 11 14.5358M15.5 16.1916C15.6524 16.3213 15.8067 16.459 15.963 16.605C16.1098 16.7421 16.2584 16.8866 16.4091 17.0384C17.7144 16.6585 18.5811 16.8561 19.5 17.2765M15.5 16.1916V10M15.5 10H19.5V17.2765" stroke="#272F3A" stroke-width="0.7" stroke-linejoin="round"/>
</svg>
