<svg width="24" height="24" viewBox="0 0 24 24" fill="none" xmlns="http://www.w3.org/2000/svg">
<path d="M8.28571 5.11765V3.1C8.28571 3.04477 8.33049 3 8.38571 3H18.9C18.9552 3 19 3.04477 19 3.1V20.4706M8.28571 5.11765C10.6236 6.0447 11.1106 7.1181 11.5 9.35294M8.28571 5.11765C5.88546 6.13514 5.32141 7.1454 5.07143 9.35294M8.28571 9.35294H5.07143M10.4286 9.35294H11.5M11.5 9.35294H12.4714C12.5267 9.35294 12.5714 9.39771 12.5714 9.45294V11.3706C12.5714 11.4258 12.5267 11.4706 12.4714 11.4706H4.1C4.04477 11.4706 4 11.4258 4 11.3706V9.45294C4 9.39771 4.04477 9.35294 4.1 9.35294H5.07143M4 13.5882V14.6471M6.14286 13.5882V14.6471M8.28571 13.5882V14.6471M10.4286 13.5882V14.6471M12.5714 13.5882V14.6471M5.07143 16.7647V17.8235M7.21429 16.7647V17.8235M9.35714 16.7647V17.8235M11.5 16.7647V17.8235M4 19.9412V21M6.14286 19.9412V21M8.28571 19.9412V21M10.4286 19.9412V21M12.5714 19.9412V21" stroke="#272F3A" stroke-width="0.7" stroke-linecap="round"/>
</svg>
