<svg width="24" height="24" viewBox="0 0 24 24" fill="none" xmlns="http://www.w3.org/2000/svg">
<path d="M6.14601 13.7231C6.23048 13.7231 7.14839 13.7231 7.50424 13.7231M18.3701 13.7231C18.0655 13.7231 17.3661 13.7231 17.0119 13.7231M7.50424 13.7231L7.97892 11.7732C8.09891 11.2803 8.54041 10.9333 9.04771 10.9333H15.4684C15.9757 10.9333 16.4172 11.2803 16.5372 11.7732L17.0119 13.7231M7.50424 13.7231C7.69794 13.7231 7.2472 13.7231 7.50424 13.7231ZM7.50424 13.7231L6.82513 15.118M7.50424 13.7231C7.99703 13.7231 9.27431 13.7231 9.93549 13.7231C10.6534 13.7231 11.4457 13.7231 12.2581 13.7231C13.7879 13.7231 15.7016 13.7231 17.0119 13.7231M17.0119 13.7231L17.691 15.118M17.691 15.118H15.0371C14.9988 15.118 14.9639 15.1398 14.9472 15.1742L14.3654 16.369C14.3331 16.4355 14.3814 16.5128 14.4553 16.5128H17.691M17.691 15.118V16.5128M6.82513 15.118H9.47906C9.51732 15.118 9.55222 15.1398 9.56897 15.1742L10.1507 16.369C10.1831 16.4355 10.1347 16.5128 10.0608 16.5128H6.82513M6.82513 15.118V16.5128M7.50424 17.9077H6.92513C6.8699 17.9077 6.82513 17.8629 6.82513 17.8077V16.5128M7.50424 17.9077V19.2026C7.50424 19.2578 7.54902 19.3026 7.60424 19.3026H9.4416C9.49682 19.3026 9.5416 19.2578 9.5416 19.2026V17.9077M7.50424 17.9077H9.5416M9.5416 17.9077H14.9745M14.9745 17.9077V19.2026C14.9745 19.2578 15.0193 19.3026 15.0745 19.3026H16.9119C16.9671 19.3026 17.0119 19.2578 17.0119 19.2026V17.9077M14.9745 17.9077H17.0119M17.0119 17.9077H17.591C17.6462 17.9077 17.691 17.8629 17.691 17.8077V16.5128M4 20V9.38779C4 9.35384 4.01723 9.32221 4.04575 9.30379L12.202 4.03619C12.236 4.01428 12.2797 4.01493 12.313 4.03785L19.9567 9.30353C19.9838 9.32219 20 9.35298 20 9.38588V20" stroke="#272F3A" stroke-width="0.7" stroke-linecap="round"/>
</svg>
