<svg width="24" height="24" viewBox="0 0 24 24" fill="none" xmlns="http://www.w3.org/2000/svg">
<path d="M7.91667 15.8H5.58333M7.91667 15.8H8.4C8.45523 15.8 8.5 15.8448 8.5 15.9V16.9M7.91667 15.8V9.75M5.58333 15.8H5.1C5.04477 15.8 5 15.8448 5 15.9V17.9C5 17.9552 5.04477 18 5.1 18H8.4C8.45523 18 8.5 17.9552 8.5 17.9V16.9M5.58333 15.8V7.1C5.58333 7.04477 5.6281 7 5.68333 7H7.81667C7.8719 7 7.91667 7.04477 7.91667 7.1V9.75M7.91667 9.75H15.5M8.5 16.9H9.9M14.0167 16.9H12.0353M14.0167 16.9V8.65M14.0167 16.9H15.5M9.9 8.65V16.9M9.9 16.9H12.0353M12.0353 8.65V16.9M18.4167 15.8H18.9C18.9552 15.8 19 15.8448 19 15.9V16.9V17.9C19 17.9552 18.9552 18 18.9 18H15.6C15.5448 18 15.5 17.9552 15.5 17.9V15.9C15.5 15.8448 15.5448 15.8 15.6 15.8H16.025M18.4167 15.8V9.75V7.1C18.4167 7.04477 18.3719 7 18.3167 7H16.0833M18.4167 15.8H16.025M16.025 7V15.8" stroke="#6833FD" stroke-width="0.7" stroke-linecap="round"/>
</svg>
