<svg width="24" height="24" viewBox="0 0 24 24" fill="none" xmlns="http://www.w3.org/2000/svg">
<path d="M6.49999 4.99999C6.49999 5.19999 6.50003 5.19999 6.50012 5.19999H6.50048H6.5011H6.50195H6.50305H6.50439H6.50597H6.50779H6.50984H6.51214H6.51467H6.51489M6.51489 5.19999C6.51111 5.20381 6.50553 5.21023 6.49823 5.22055C6.46915 5.26167 6.43565 5.33495 6.40297 5.44732C6.33837 5.66947 6.29275 5.9873 6.26178 6.35252C6.20012 7.07948 6.19999 7.94584 6.19999 8.49999V11.8H18.05V8.49999C18.05 7.94584 18.0499 7.07948 17.9882 6.35252C17.9573 5.9873 17.9116 5.66947 17.847 5.44732C17.8144 5.33496 17.7809 5.26167 17.7518 5.22056C17.7445 5.21023 17.7389 5.20381 17.7351 5.19999H17.7324H17.7282H17.7238H17.7191H17.7142H17.7091H17.7038H17.6982H17.6924H17.6864H17.6802H17.6737H17.6671H17.6602H17.653H17.6457H17.6382H17.6304H17.6225H17.6143H17.6059H17.5973H17.5884H17.5794H17.5702H17.5607H17.5511H17.5412H17.5312H17.5209H17.5105H17.4998H17.4889H17.4779H17.4666H17.4551H17.4435H17.4316H17.4196H17.4073H17.3949H17.3822H17.3694H17.3564H17.3432H17.3298H17.3162H17.3025H17.2885H17.2744H17.26H17.2455H17.2308H17.216H17.2009H17.1857H17.1703H17.1547H17.139H17.123H17.1069H17.0906H17.0742H17.0576H17.0408H17.0238H17.0066H16.9893H16.9719H16.9542H16.9364H16.9185H16.9003H16.882H16.8636H16.845H16.8262H16.8073H16.7882H16.7689H16.7495H16.73H16.7103H16.6904H16.6704H16.6502H16.6299H16.6094H16.5888H16.5681H16.5471H16.5261H16.5049H16.4836H16.4621H16.4404H16.4187H16.3968H16.3747H16.3525H16.3302H16.3078H16.2852H16.2625H16.2396H16.2166H16.1935H16.1702H16.1468H16.1233H16.0997H16.0759H16.052H16.028H16.0039H15.9796H15.9552H15.9307H15.9061H15.8814H15.8565H15.8315H15.8064H15.7812H15.7559H15.7305H15.7049H15.6792H15.6535H15.6276H15.6016H15.5755H15.5493H15.523H15.4966H15.47H15.4434H15.4167H15.3898H15.3629H15.3359H15.3088H15.2815H15.2542H15.2268H15.1993H15.1717H15.144H15.1162H15.0883H15.0603H15.0323H15.0041H14.9759H14.9476H14.9192H14.8907H14.8621H14.8334H14.8047H14.7759H14.747H14.718H14.6889H14.6598H14.6306H14.6013H14.572H14.5425H14.513H14.4834H14.4538H14.4241H14.3943H14.3644H14.3345H14.3045H14.2745H14.2444H14.2142H14.184H14.1537H14.1233H14.0929H14.0624H14.0319H14.0013H13.9707H13.94H13.9092H13.8784H13.8476H13.8167H13.7857H13.7547H13.7237H13.6926H13.6614H13.6302H13.599H13.5677H13.5364H13.505H13.4736H13.4422H13.4107H13.3792H13.3477H13.3161H13.2844H13.2528H13.2211H13.1894H13.1576H13.1258H13.094H13.0622H13.0303H12.9984H12.9665H12.9346H12.9026H12.8706H12.8386H12.8066H12.7745H12.7425H12.7104H12.6783H12.6462H12.614H12.5819H12.5497H12.5176H12.4854H12.4532H12.421H12.3888H12.3566H12.3243H12.2921H12.2599H12.2276H12.1954H12.1631H12.1309H12.0987H12.0664H12.0342H12.0019H11.9697H11.9375H11.9052H11.873H11.8408H11.8086H11.7764H11.7443H11.7121H11.6799H11.6478H11.6157H11.5835H11.5514H11.5194H11.4873H11.4552H11.4232H11.3912H11.3592H11.3273H11.2953H11.2634H11.2315H11.1997H11.1678H11.136H11.1043H11.0725H11.0408H11.0091H10.9775H10.9459H10.9143H10.8827H10.8512H10.8198H10.7883H10.7569H10.7256H10.6943H10.663H10.6318H10.6006H10.5695H10.5384H10.5073H10.4763H10.4454H10.4145H10.3837H10.3529H10.3221H10.2914H10.2608H10.2302H10.1997H10.1692H10.1388H10.1085H10.0782H10.048H10.0178H9.98772H9.95768H9.92771H9.89781H9.86797H9.8382H9.8085H9.77887H9.74931H9.71982H9.6904H9.66105H9.63178H9.60259H9.57347H9.54443H9.51546H9.48658H9.45778H9.42905H9.40041H9.37185H9.34337H9.31498H9.28668H9.25846H9.23032H9.20228H9.17433H9.14646H9.11869H9.09101H9.06342H9.03593H9.00853H8.98122H8.95402H8.92691H8.8999H8.87299H8.84618H8.81947H8.79286H8.76636H8.73996H8.71367H8.68748H8.6614H8.63543H8.60957H8.58382H8.55817H8.53264H8.50723H8.48192H8.45673H8.43166H8.4067H8.38186H8.35714H8.33254H8.30806H8.2837H8.25946H8.23534H8.21135H8.18749H8.16375H8.14013H8.11665H8.09329H8.07006H8.04696H8.024H8.00117H7.97847H7.9559H7.93347H7.91118H7.88902H7.867H7.84512H7.82338H7.80178H7.78033H7.75901H7.73784H7.71682H7.69594H7.6752H7.65462H7.63418H7.61389H7.59375H7.57377H7.55393H7.53425H7.51472H7.49535H7.47613H7.45707H7.43817H7.41943H7.40085H7.38242H7.36416H7.34606H7.32813H7.31036H7.29275H7.27531H7.25804H7.24093H7.224H7.20723H7.19064H7.17422H7.15797H7.14189H7.12599H7.11027H7.09472H7.07935H7.06416H7.04914H7.03431H7.01966H7.00519H6.9909H6.9768H6.96288H6.94915H6.93561H6.92225H6.90908H6.8961H6.88332H6.87072H6.85832H6.84611H6.83409H6.82227H6.81065H6.79922H6.78799H6.77697H6.76614H6.75551H6.74508H6.73486H6.72484H6.71502H6.70541H6.69601H6.68682H6.67783H6.66905H6.66049H6.65213H6.64399H6.63606H6.62834H6.62084H6.61356H6.60649H6.59964H6.59301H6.5866H6.58041H6.57444H6.56869H6.56317H6.55787H6.5528H6.54795H6.54333H6.53894H6.53478H6.53085H6.52715H6.52368H6.52044H6.51744H6.51489ZM4.00002 18.7H4.8V19.5C4.8 19.8855 5.11455 20.2 5.50002 20.2C5.88549 20.2 6.20004 19.8855 6.20004 19.5V18.7H18.05V19.5C18.05 19.8855 18.3646 20.2 18.7501 20.2C19.1355 20.2 19.45 19.8855 19.45 19.5V18.7H20.245C20.3312 18.7 20.4179 18.7007 20.5038 18.7014C20.686 18.7028 20.8651 18.7042 21.0307 18.6991C21.2756 18.6915 21.5132 18.6695 21.7208 18.6055C21.9321 18.5404 22.1222 18.4287 22.2561 18.2369C22.3886 18.0472 22.45 17.802 22.45 17.5V9.50001C22.45 9.19817 22.389 8.95313 22.2571 8.76344C22.1238 8.57157 21.9343 8.45972 21.7235 8.39455C21.5164 8.33053 21.2793 8.30853 21.0349 8.30095C20.8697 8.29582 20.6908 8.29722 20.5087 8.29864C20.4228 8.29931 20.3362 8.29999 20.25 8.29999C19.9747 8.29999 19.7035 8.35575 19.4501 8.45846C19.4502 8.34464 19.4511 8.22469 19.452 8.1C19.4576 7.33296 19.4645 6.387 19.3193 5.59158C19.2333 5.12065 19.0904 4.67834 18.8449 4.34993C18.592 4.01161 18.2334 3.8 17.75 3.8H6.49999C6.01667 3.8 5.65806 4.01161 5.40513 4.34993C5.15962 4.67834 5.01673 5.12065 4.93076 5.59158C4.78554 6.387 4.79243 7.33295 4.79801 8.09999C4.79892 8.22501 4.7998 8.34527 4.79997 8.45936C4.54608 8.35763 4.27576 8.30388 4.00286 8.30001L4.00286 8.29999H4.00002C3.91383 8.29999 3.82724 8.29931 3.74137 8.29864C3.55928 8.29722 3.38037 8.29582 3.21513 8.30095C2.9707 8.30853 2.73363 8.33053 2.52655 8.39455C2.31576 8.45972 2.12625 8.57157 1.99288 8.76344C1.86103 8.95313 1.8 9.19817 1.8 9.50001V17.5C1.8 17.8018 1.86103 18.0469 1.99288 18.2366C2.12625 18.4285 2.31576 18.5403 2.52655 18.6055C2.73363 18.6695 2.9707 18.6915 3.21513 18.6991C3.38035 18.7042 3.55922 18.7028 3.74128 18.7014C3.82718 18.7007 3.9138 18.7 4.00002 18.7Z" fill="#57B3BD" stroke="#57B3BD" stroke-width="0.4"/>
</svg>
