<svg width="24" height="24" viewBox="0 0 24 24" fill="none" xmlns="http://www.w3.org/2000/svg">
<path d="M8.5 20.5C7.94772 20.5 7.5 20.9477 7.5 21.5C7.5 22.0523 7.94772 22.5 8.5 22.5C9.05228 22.5 9.5 22.0523 9.5 21.5C9.5 20.9477 9.05228 20.5 8.5 20.5ZM8.5 20.5V20.1514C8.5 19.4321 8.8595 18.7603 9.45801 18.3613V18.3613C9.81142 18.1257 10.2267 18 10.6514 18H11.5M8.5 20.5L12.2332 19.5667C12.4084 19.5229 12.5916 19.5229 12.7668 19.5667L16.5 20.5M16.5 20.5C15.9477 20.5 15.5 20.9477 15.5 21.5C15.5 22.0523 15.9477 22.5 16.5 22.5C17.0523 22.5 17.5 22.0523 17.5 21.5C17.5 20.9477 17.0523 20.5 16.5 20.5ZM16.5 20.5V19.7071C16.5 19.2544 16.3201 18.8201 16 18.5V18.5C15.6799 18.1799 15.2456 18 14.7929 18H13.5M11.5 18V15.5M11.5 18H13.5M11.5 15.5H13.5M11.5 15.5H8.6C7.99249 15.5 7.5 15.0075 7.5 14.4V14.25M13.5 15.5V18M13.5 15.5H16.4C17.0075 15.5 17.5 15.0075 17.5 14.4V14.25M11.5 13H8.6C7.99249 13 7.5 13.4925 7.5 14.1V14.25M11.5 13V10M11.5 13H13.5M11.5 10H13.5M11.5 10H9.35885C8.8541 10 8.41412 9.65647 8.2917 9.16679L7.50205 6.0082C7.19613 4.78454 7.63147 3.49482 8.6164 2.70688V2.70688C9.18838 2.24929 9.89907 2 10.6316 2H14.3684C15.1009 2 15.8116 2.24929 16.3836 2.70688V2.70688C17.3685 3.49482 17.8039 4.78453 17.498 6.0082L16.7083 9.16679C16.5859 9.65647 16.1459 10 15.6411 10H13.5M13.5 10V13M13.5 13H16.4C17.0075 13 17.5 13.4925 17.5 14.1V14.25M17.5 14.25V14.25C18.3284 14.25 19 13.5784 19 12.75V12M19 12H18.7C18.3134 12 18 11.6866 18 11.3V9.39654C18 8.94114 18.428 8.60699 18.8698 8.71744L19.4698 8.86744C19.7814 8.94535 20 9.22534 20 9.54654V11.3C20 11.6866 19.6866 12 19.3 12H19ZM7.5 14.25V14.25C6.67157 14.25 6 13.5784 6 12.75V12M6 12H5.7C5.3134 12 5 11.6866 5 11.3V9.54654C5 9.22534 5.21861 8.94535 5.53023 8.86744L6.13023 8.71744C6.57203 8.60699 7 8.94114 7 9.39654V11.3C7 11.6866 6.6866 12 6.3 12H6Z" stroke="#272F3A" stroke-width="0.7"/>
</svg>
