<svg width="25" height="24" viewBox="0 0 25 24" fill="none" xmlns="http://www.w3.org/2000/svg">
<path d="M10.1198 5.87467L9.58606 5.34097C9.54701 5.30192 9.48369 5.30192 9.44464 5.34097L8.00433 6.78128M10.1198 5.87467L15.4887 0.505708C15.5278 0.466656 15.5911 0.466656 15.6301 0.505708L17.9063 2.78192C17.9454 2.82097 17.9454 2.88429 17.9063 2.92334L17.0678 3.76191C16.9932 3.83652 17.07 3.96086 17.1701 3.92749L18.5228 3.47658C18.5588 3.4646 18.5984 3.47396 18.6252 3.50074L19.1859 4.06144M10.1198 5.87467L18.2118 13.9667M19.1859 4.06144L19.7196 3.52775C19.7586 3.4887 19.8219 3.4887 19.861 3.52775L23.9919 7.6586C24.0106 7.67736 24.0211 7.70279 24.0211 7.72931V12.6947C24.0211 12.9729 23.9332 13.2672 23.6938 13.4089C23.5123 13.5164 23.3514 13.5144 23.1718 13.4153C22.9132 13.2727 22.8123 12.9611 22.8123 12.6658V12.5232V15.1758C22.8123 15.7934 22.586 16.4547 22.0328 16.7293C21.7278 16.8807 21.4021 16.9101 21.009 16.6774C20.5594 16.4113 20.3947 15.8601 20.3947 15.3376V11.9187M19.1859 4.06144L17.4019 5.84538C17.3832 5.86413 17.3727 5.88957 17.3727 5.91609V11.2591C17.3727 11.6885 17.4687 12.1471 17.8039 12.4155C18.1031 12.6551 18.3916 12.6305 18.7798 12.3133C19.0618 12.0828 19.1859 11.7168 19.1859 11.3526V11.3526C19.1859 10.9333 19.2577 10.4676 19.5932 10.2161C19.6774 10.153 19.758 10.1251 19.8394 10.1353C20.3737 10.2023 20.3947 10.9936 20.3947 11.5321V11.9187M20.3947 11.9187L18.2118 13.9667M18.2118 13.9667L18.5108 14.2657C18.5498 14.3047 18.5498 14.368 18.5108 14.4071L17.0704 15.8474M8.00433 6.78128L7.28802 7.49759C6.79153 7.99408 6.57602 8.70585 6.71372 9.39436L7.45456 13.0986C7.6069 13.8603 7.32634 14.6438 6.72514 15.1357L2.00315 18.9992C1.39316 19.4983 0.945815 20.2167 1.02068 21.0013C1.19356 22.8132 2.42558 23.6136 3.77073 23.5627C4.37442 23.5399 4.88389 23.1534 5.26644 22.6858L9.39697 17.6374C9.84769 17.0865 10.5468 16.8015 11.2542 16.8801L14.5563 17.247C15.1903 17.3174 15.822 17.0958 16.2731 16.6447L17.0704 15.8474M8.00433 6.78128L17.0704 15.8474M5.28449 20.3805C5.28449 21.0481 4.74329 21.5893 4.07568 21.5893C3.40807 21.5893 2.86686 21.0481 2.86686 20.3805C2.86686 19.7128 3.40807 19.1716 4.07568 19.1716C4.74329 19.1716 5.28449 19.7128 5.28449 20.3805ZM22.8123 19.1716C22.8123 19.8393 22.2711 20.3805 21.6035 20.3805C20.9359 20.3805 20.3947 19.8393 20.3947 19.1716C20.3947 18.504 20.9359 17.9628 21.6035 17.9628C22.2711 17.9628 22.8123 18.504 22.8123 19.1716Z" stroke="#3399FD" stroke-width="0.7" stroke-linejoin="round"/>
</svg>
