<svg width="24" height="24" viewBox="0 0 24 24" fill="none" xmlns="http://www.w3.org/2000/svg">
<path d="M5.33333 12.6H12M5.33333 12.6L4.5 10.4M5.33333 12.6V12.05C5.33333 11.4425 5.82494 10.95 6.43245 10.95C7.92444 10.95 10.5252 10.95 12 10.95M18.6667 12.6L20.1465 8.69313C20.2646 8.38136 20.5144 8.11772 20.8448 8.07364C21.1734 8.02982 21.4215 8.097 21.6608 8.32234C21.9116 8.55853 21.9302 8.94004 21.8114 9.26345L19.9693 14.2785C19.8543 14.5918 19.556 14.8 19.2222 14.8V14.8M18.6667 12.6H12M18.6667 12.6V12.05C18.6667 11.4425 18.1742 10.95 17.5667 10.95H12M12 10.95V12.6M4.5 10.4L3.85373 8.69384C3.73548 8.38167 3.48511 8.11799 3.15409 8.07482C2.82042 8.0313 2.57148 8.10096 2.33548 8.32389C2.08643 8.55915 2.06929 8.93864 2.18741 9.26023L4.03067 14.2785C4.14574 14.5918 4.44404 14.8 4.77778 14.8V14.8M4.5 10.4V7.1C4.5 6.49249 4.99249 6 5.6 6H18.4C19.0075 6 19.5 6.49249 19.5 7.1V10.4M7 14.8L5.36334 16.9604C5.34444 16.9853 5.31494 17 5.28364 17H4.61342C4.55322 17 4.50667 16.9472 4.51421 16.8875L4.77778 14.8M7 14.8H4.77778M7 14.8H17M19.2222 14.8V16.9C19.2222 16.9552 19.1775 17 19.1222 17H18.1726C18.1349 17 18.1004 16.9788 18.0834 16.9451L17 14.8M19.2222 14.8H17M8.11111 8.75H7M9.22222 8.75H10.3333M12.5556 8.75H11.4444M13.6667 8.75H14.7778M15.8889 8.75H17" stroke="#272F3A" stroke-width="0.7" stroke-linejoin="round"/>
</svg>
