<svg width="24" height="24" viewBox="0 0 24 24" fill="none" xmlns="http://www.w3.org/2000/svg">
<path d="M18.4333 14.6316C18.4333 16.085 15.568 17.2632 12.0333 17.2632C8.49871 17.2632 5.63333 16.085 5.63333 14.6316M18.4333 14.6316C18.4333 13.1782 15.568 12 12.0333 12C8.49871 12 5.63333 13.1782 5.63333 14.6316M18.4333 14.6316C18.4333 16.7898 17.117 18.6446 15.2333 19.4568M5.63333 14.6316C5.63333 16.7148 6.85984 18.5154 8.63913 19.3684M8.21759 12.4764C8.07424 12.3259 7.93986 12.1668 7.81534 12M15.8553 12.4698C15.9963 12.3213 16.1286 12.1644 16.2513 12M14.8384 2.77749C16.5139 3.79056 17.5757 5.68069 17.3918 7.76771L17.2492 9.38623C17.163 10.3642 16.8045 11.2588 16.2513 12M14.8384 2.77749C14.0241 2.28518 13.0649 2 12.0333 2C11.0017 2 10.0425 2.28518 9.22831 2.77749M14.8384 2.77749H20V12H16.2513M7.81534 12C7.26215 11.2588 6.90368 10.3642 6.81751 9.38623L6.67489 7.76771C6.49099 5.68069 7.55277 3.79056 9.22831 2.77749M7.81534 12H4V2.77749H9.22831M8.63913 19.3684V22H15.2333V19.4568M8.63913 19.3684C9.72775 19.8903 10.8586 20 12.0333 20C13.1333 20 14.1993 19.9026 15.2333 19.4568M15.7667 14.6316C15.7667 15.5036 13.3016 15.6842 12.0333 15.6842C10.765 15.6842 8.3 15.5036 8.3 14.6316C8.3 13.7596 10.4333 13.5789 12.0333 13.5789C13.7916 13.5789 15.7667 13.7596 15.7667 14.6316Z" stroke="#272F3A" stroke-width="0.7" stroke-linecap="round" stroke-linejoin="round"/>
</svg>
