<svg width="24" height="24" viewBox="0 0 24 24" fill="none" xmlns="http://www.w3.org/2000/svg">
<path d="M16.95 14.0939C16.95 16.7719 14.7338 18.9429 12 18.9429C9.26621 18.9429 7.05003 16.7719 7.05003 14.0939M16.95 14.0939C16.95 11.4159 14.7338 9.2449 12 9.2449C9.26621 9.2449 7.05003 11.4159 7.05003 14.0939M16.95 14.0939L15.1953 14.4064C14.722 14.4907 14.2355 14.46 13.7765 14.317L12.9718 14.0661C12.3416 13.8697 11.6642 13.8866 11.0446 14.1142L10.9321 14.1556C9.92267 14.5264 8.69123 14.4884 7.6465 14.2337C7.30608 14.1507 7.05003 14.0939 7.05003 14.0939M3.00004 7.26122V3.5C3.00004 3.22386 3.2239 3 3.50004 3H20.5C20.7761 3 21 3.22386 21 3.5V7.26122M3.00004 7.26122L3 20.5C3 20.7761 3.22386 21 3.5 21H20.5C20.7761 21 21 20.7761 21 20.5L21 7.26122M3.00004 7.26122H21M13.6875 5.20408H15.0375M16.95 5.20408H18.6375" stroke="#272F3A" stroke-width="0.7" stroke-linecap="round" stroke-linejoin="round"/>
</svg>
