<svg width="21" height="16" viewBox="0 0 21 16" fill="none" xmlns="http://www.w3.org/2000/svg">
<path d="M12.56 8.26718C11.7671 8.26718 10.9921 8.03212 10.3329 7.59161C9.67371 7.1512 9.15997 6.52512 8.85661 5.79264C8.55314 5.06018 8.47382 4.2542 8.6285 3.47662C8.78317 2.69904 9.16489 1.9848 9.72555 1.42419C10.2861 0.863588 11.0004 0.481816 11.7779 0.327151C12.5555 0.172476 13.3614 0.251855 14.094 0.555252C14.8264 0.85865 15.4525 1.37244 15.8929 2.03163C16.3334 2.69083 16.5685 3.46584 16.5685 4.25865C16.5685 5.32178 16.1461 6.34137 15.3945 7.09316C14.6427 7.84484 13.6231 8.26718 12.56 8.26718ZM12.56 1.85353C12.0843 1.85353 11.6193 1.99459 11.2238 2.25887C10.8283 2.52315 10.52 2.89878 10.3379 3.33825C10.1559 3.77773 10.1082 4.26132 10.201 4.72786C10.2939 5.19441 10.5229 5.62296 10.8593 5.95933C11.1957 6.29573 11.6242 6.5248 12.0907 6.61759C12.5573 6.71037 13.0409 6.6627 13.4803 6.48066C13.9199 6.29862 14.2955 5.99033 14.5597 5.59486C14.824 5.19934 14.9651 4.73434 14.9651 4.25865C14.9651 3.62077 14.7116 3.00903 14.2606 2.55798C13.8095 2.10693 13.1978 1.85353 12.56 1.85353Z" fill="#57B3BD"/>
<path d="M20.0428 15.7498C19.831 15.747 19.6286 15.6617 19.4789 15.5119C19.3291 15.3622 19.2438 15.1598 19.241 14.9481C19.241 12.8636 18.108 11.474 12.5602 11.474C7.01237 11.474 5.87929 12.8636 5.87929 14.9481C5.87929 15.1607 5.79482 15.3646 5.64448 15.5149C5.49413 15.6653 5.29021 15.7498 5.07758 15.7498C4.86496 15.7498 4.66104 15.6653 4.51069 15.5149C4.36035 15.3646 4.27588 15.1607 4.27588 14.9481C4.27588 9.87061 10.0802 9.87061 12.5602 9.87061C15.0401 9.87061 20.8445 9.87061 20.8445 14.9481C20.8417 15.1598 20.7564 15.3622 20.6066 15.5119C20.4569 15.6617 20.2545 15.747 20.0428 15.7498Z" fill="#57B3BD"/>
<path d="M6.48816 9.13318H6.1461C5.2956 9.05098 4.5126 8.6343 3.96933 7.97477C3.42607 7.31523 3.16706 6.46692 3.24927 5.61637C3.33149 4.76587 3.7482 3.98287 4.40772 3.43961C5.06726 2.89635 5.91558 2.63733 6.76609 2.71955C6.87514 2.72424 6.98209 2.75114 7.08038 2.79863C7.17866 2.8461 7.26622 2.91315 7.33768 2.99565C7.40914 3.07817 7.463 3.1744 7.49596 3.27846C7.52891 3.38252 7.54028 3.49222 7.52934 3.60082C7.51841 3.70943 7.48541 3.81466 7.43238 3.91006C7.37934 4.00546 7.30738 4.08902 7.22091 4.15564C7.13443 4.22224 7.03527 4.27049 6.92949 4.29743C6.82371 4.32437 6.71355 4.32941 6.60574 4.31227C6.39709 4.29147 6.18637 4.31292 5.98618 4.37537C5.78598 4.43782 5.60044 4.53996 5.4406 4.67571C5.27826 4.80666 5.14362 4.96862 5.04451 5.15214C4.9454 5.33567 4.88383 5.53708 4.86337 5.74465C4.84128 5.95479 4.86121 6.1673 4.92205 6.36965C4.98287 6.5721 5.08337 6.76034 5.21767 6.92346C5.35198 7.08669 5.51742 7.22149 5.70435 7.32004C5.89126 7.4186 6.09595 7.47899 6.30644 7.4977C6.65442 7.52752 7.0028 7.44511 7.30056 7.26253C7.482 7.15062 7.70049 7.11523 7.90798 7.1644C8.11546 7.21347 8.2949 7.34302 8.40692 7.52442C8.51894 7.70593 8.55422 7.92442 8.50516 8.1319C8.45598 8.33938 8.32643 8.51886 8.14502 8.63078C7.64924 8.94697 7.07607 9.12078 6.48816 9.13318Z" fill="#57B3BD"/>
<path d="M0.801705 14.9473C0.589938 14.9445 0.38763 14.8592 0.237871 14.7094C0.0881233 14.5597 0.00276856 14.3573 0 14.1456C0 11.2594 0.769637 9.33533 4.543 9.33533C4.75562 9.33533 4.95954 9.41977 5.10989 9.57017C5.26024 9.72047 5.3447 9.92442 5.3447 10.137C5.3447 10.3496 5.26024 10.5536 5.10989 10.7039C4.95954 10.8543 4.75562 10.9387 4.543 10.9387C2.03099 10.9387 1.60341 11.7404 1.60341 14.1456C1.60064 14.3573 1.51529 14.5597 1.36554 14.7094C1.21578 14.8592 1.01347 14.9445 0.801705 14.9473Z" fill="#57B3BD"/>
</svg>
